# xmcd
#
# Track frame offsets:
#	150
#	15329
#	31516
#	45243
#	64099
#	84588
#	100360
#	118087
#	135188
#	152620
#	168562
#	188305
#	204635
#	220317
#	235780
#
# Disc length: 3392 seconds
#
# Revision: 1
# Processed by: cddbd v1.5.2PL0 Copyright (c) Steve Scherf et al.
# Submitted via: audiograbber 1.83.01
#
DISCID=b10d3e0f
DTITLE=Jennifer Paige - Best Kept Secret
DYEAR=2009
DGENRE=Pop
TTITLE0=Beautiful Lie [feat. Nick Carter]
TTITLE1=Feel the Love
TTITLE2=Best Kept Secret
TTITLE3=The Calling
TTITLE4=Here in the Sun
TTITLE5=Sugarcoated
TTITLE6=Broken Things
TTITLE7=Underestimated
TTITLE8=Bloom
TTITLE9=I Do
TTITLE10=Downpour
TTITLE11=Wasted
TTITLE12=Be Free
TTITLE13=Crush [2009 Remix by DJ Kore]
TTITLE14=Mercy
EXTD=
EXTT0=
EXTT1=
EXTT2=
EXTT3=
EXTT4=
EXTT5=
EXTT6=
EXTT7=
EXTT8=
EXTT9=
EXTT10=
EXTT11=
EXTT12=
EXTT13=
EXTT14=
PLAYORDER=
